<?xml version="1.0" standalone="no"?>
<!DOCTYPE svg PUBLIC "-//W3C//DTD SVG 20010904//EN"
 "http://www.w3.org/TR/2001/REC-SVG-20010904/DTD/svg10.dtd">
<svg version="1.0" xmlns="http://www.w3.org/2000/svg"
 width="384.000000pt" height="384.000000pt" viewBox="0 0 384.000000 384.000000"
 preserveAspectRatio="xMidYMid meet">
<metadata>
Created by potrace 1.11, written by Peter Selinger 2001-2013
</metadata>
<g transform="translate(0.000000,384.000000) scale(0.100000,-0.100000)"
fill="#000000" stroke="none">
<path d="M2030 3695 c0 -165 -11 -150 118 -161 l82 -7 0 -428 0 -429 -22 0
c-13 0 -74 9 -137 20 -141 25 -348 27 -482 4 -264 -44 -509 -168 -708 -359
-195 -188 -325 -421 -386 -691 -24 -107 -30 -369 -11 -484 22 -138 60 -260
117 -379 53 -111 151 -266 181 -285 10 -6 18 -16 18 -22 0 -21 178 -181 269
-243 408 -272 922 -303 1363 -80 359 181 614 516 711 934 21 88 21 113 23
1135 2 575 5 1104 9 1176 l7 131 60 7 c34 3 76 6 95 6 l34 0 -2 149 -1 149
-669 0 -669 1 0 -144z m847 100 c6 -2 19 -15 28 -28 14 -23 16 -141 15 -1239
0 -719 -4 -1249 -10 -1300 -42 -367 -279 -699 -615 -859 -38 -19 -72 -36 -75
-39 -3 -3 -12 -7 -20 -9 -8 -1 -58 -15 -110 -29 -84 -23 -114 -26 -260 -26
-190 1 -291 19 -438 79 -48 19 -91 36 -97 38 -5 1 -12 5 -15 8 -3 3 -32 23
-65 45 -319 208 -539 670 -497 1042 42 363 298 717 637 882 158 77 238 95 435
95 196 0 258 -11 505 -92 94 -31 176 -58 183 -60 9 -4 12 149 12 744 0 412 2
752 4 754 5 5 367 0 383 -6z"/>
<path d="M1730 2189 c-180 -16 -332 -82 -472 -203 -25 -23 -56 -53 -67 -67
l-20 -26 63 23 c218 79 452 69 549 -24 52 -49 61 -78 67 -210 l5 -124 39 -13
c21 -7 51 -26 67 -41 l28 -27 41 27 c44 29 98 98 117 149 31 85 9 214 -64 370
-26 53 -44 100 -41 102 5 5 50 -42 104 -107 44 -52 107 -170 130 -243 60 -190
10 -304 -164 -374 -75 -31 -82 -36 -82 -61 0 -25 6 -30 48 -44 79 -26 134 -30
194 -12 105 30 186 112 273 278 l48 91 -17 45 c-37 102 -153 247 -272 340 -47
37 -207 114 -226 109 -10 -3 -16 -1 -13 3 7 11 -121 38 -200 42 -33 2 -94 1
-135 -3z"/>
<path d="M1172 1873 c-30 -6 -62 -51 -111 -153 -62 -130 -76 -193 -76 -355 0
-87 5 -163 14 -200 l14 -60 10 35 c64 238 154 387 269 444 91 45 159 34 291
-48 l77 -48 29 24 c15 12 36 28 45 33 15 9 15 15 1 75 -20 80 -53 138 -106
184 -40 34 -124 71 -140 61 -4 -3 -10 -1 -14 5 -6 10 -254 12 -303 3z"/>
<path d="M2582 1531 c-27 -115 -94 -257 -152 -324 -91 -103 -203 -125 -321
-64 -35 18 -78 42 -95 52 l-31 19 -32 -26 c-17 -15 -40 -30 -51 -33 -24 -8
-22 -22 16 -102 52 -109 154 -164 309 -166 50 -1 128 2 175 6 93 9 96 3 12
-31 -126 -51 -202 -66 -327 -67 -104 0 -126 3 -170 23 -106 49 -145 119 -145
259 0 55 -3 73 -14 73 -7 0 -30 11 -50 25 l-37 25 -20 -22 c-77 -92 -95 -215
-47 -320 42 -90 75 -135 191 -255 17 -18 28 -35 25 -38 -3 -4 -30 8 -59 26
-195 118 -330 279 -346 410 -10 83 11 135 85 206 35 35 76 70 90 79 24 14 27
20 23 61 -3 42 -5 46 -50 65 -27 12 -77 23 -122 26 -67 4 -84 1 -130 -21 -88
-40 -176 -141 -248 -286 l-33 -64 20 -47 c92 -221 312 -407 557 -471 113 -30
288 -30 409 0 406 99 678 492 627 906 -6 50 -17 109 -24 131 l-12 42 -23 -97z"/>
</g>
</svg>
